{
    "asset" : {
        "generator" : "Khronos glTF Blender I/O v1.2.75",
        "version" : "2.0"
    },
    "scene" : 0,
    "scenes" : [
        {
            "name" : "Scene",
            "nodes" : [
                0
            ]
        }
    ],
    "nodes" : [
        {
            "mesh" : 0,
            "name" : "Cube"
        }
    ],
    "meshes" : [
        {
            "name" : "Cube.001",
            "primitives" : [
                {
                    "attributes" : {
                        "POSITION" : 0,
                        "NORMAL" : 1,
                        "TEXCOORD_0" : 2
                    },
                    "indices" : 3
                }
            ]
        }
    ],
    "accessors" : [
        {
            "bufferView" : 0,
            "componentType" : 5126,
            "count" : 230,
            "max" : [
                1.4980672597885132,
                4,
                1.5
            ],
            "min" : [
                -1.4980672597885132,
                0,
                -1.5
            ],
            "type" : "VEC3"
        },
        {
            "bufferView" : 1,
            "componentType" : 5126,
            "count" : 230,
            "type" : "VEC3"
        },
        {
            "bufferView" : 2,
            "componentType" : 5126,
            "count" : 230,
            "type" : "VEC2"
        },
        {
            "bufferView" : 3,
            "componentType" : 5123,
            "count" : 300,
            "type" : "SCALAR"
        }
    ],
    "bufferViews" : [
        {
            "buffer" : 0,
            "byteLength" : 2760,
            "byteOffset" : 0
        },
        {
            "buffer" : 0,
            "byteLength" : 2760,
            "byteOffset" : 2760
        },
        {
            "buffer" : 0,
            "byteLength" : 1840,
            "byteOffset" : 5520
        },
        {
            "buffer" : 0,
            "byteLength" : 600,
            "byteOffset" : 7360
        }
    ],
    "buffers" : [
        {
            "byteLength" : 7960,
            "uri" : "data:application/octet-stream;base64,"
        }
    ]
}
